<?xml version="1.0" encoding="UTF-8" standalone="no"?>
<!DOCTYPE svg PUBLIC "-//W3C//DTD SVG 1.1//EN"
 "http://www.w3.org/Graphics/SVG/1.1/DTD/svg11.dtd">
<!-- Generated by graphviz version 2.40.1 (20161225.0304)
 -->
<!-- Title: G Pages: 1 -->
<svg width="276pt" height="462pt"
 viewBox="0.00 0.00 275.60 461.88" xmlns="http://www.w3.org/2000/svg" xmlns:xlink="http://www.w3.org/1999/xlink">
<g id="graph0" class="graph" transform="scale(1 1) rotate(0) translate(4 457.8789)">
<title>G</title>
<polygon fill="#ffffff" stroke="transparent" points="-4,4 -4,-457.8789 271.5963,-457.8789 271.5963,4 -4,4"/>
<!-- GW -->
<g id="node1" class="node">
<title>GW</title>
<ellipse fill="none" stroke="#000000" cx="113.8483" cy="-427.8812" rx="25.9954" ry="25.9954"/>
<text text-anchor="middle" x="113.8483" y="-424.1812" font-family="Times,serif" font-size="14.00" fill="#000000">GW</text>
</g>
<!-- lg -->
<g id="node2" class="node">
<title>lg</title>
<ellipse fill="none" stroke="#000000" cx="67.8483" cy="-259.8881" rx="18" ry="18"/>
<text text-anchor="middle" x="67.8483" y="-256.1881" font-family="Times,serif" font-size="14.00" fill="#000000">lg</text>
</g>
<!-- GW&#45;&#45;lg -->
<g id="edge5" class="edge">
<title>GW&#45;&#45;lg</title>
<path fill="none" stroke="#000000" d="M106.9617,-402.7309C97.5378,-368.3149 80.8612,-307.4113 72.6666,-277.4846"/>
</g>
<!-- start -->
<g id="node3" class="node">
<title>start</title>
<ellipse fill="none" stroke="#000000" cx="167.8483" cy="-339.8858" rx="25.9954" ry="25.9954"/>
<text text-anchor="middle" x="167.8483" y="-336.1858" font-family="Times,serif" font-size="14.00" fill="#000000">start</text>
</g>
<!-- GW&#45;&#45;start -->
<g id="edge3" class="edge">
<title>GW&#45;&#45;start</title>
<path fill="none" stroke="#000000" d="M127.4748,-405.6762C135.6608,-392.3368 146.041,-375.4218 154.2262,-362.0837"/>
</g>
<!-- nx -->
<g id="node6" class="node">
<title>nx</title>
<ellipse fill="none" stroke="#000000" cx="150.8483" cy="-186.3899" rx="19.4965" ry="19.4965"/>
<text text-anchor="middle" x="150.8483" y="-182.6899" font-family="Times,serif" font-size="14.00" fill="#000000">nx</text>
</g>
<!-- GW&#45;&#45;nx -->
<g id="edge2" class="edge">
<title>GW&#45;&#45;nx</title>
<path fill="none" stroke="#000000" d="M117.808,-402.0374C125.265,-353.3669 141.2367,-249.1233 147.8674,-205.8456"/>
</g>
<!-- ve -->
<g id="node7" class="node">
<title>ve</title>
<ellipse fill="none" stroke="#000000" cx="18.8483" cy="-186.3899" rx="18.6979" ry="18.6979"/>
<text text-anchor="middle" x="18.8483" y="-182.6899" font-family="Times,serif" font-size="14.00" fill="#000000">ve</text>
</g>
<!-- GW&#45;&#45;ve -->
<g id="edge4" class="edge">
<title>GW&#45;&#45;ve</title>
<path fill="none" stroke="#000000" d="M100.4624,-405.5179C93.6814,-393.8626 85.4986,-379.2795 78.8483,-365.8835 59.9059,-327.7268 54.3219,-318.3012 40.8483,-277.8881 32.6322,-253.2445 26.1354,-223.9167 22.3916,-205.2299"/>
</g>
<!-- sx -->
<g id="node9" class="node">
<title>sx</title>
<ellipse fill="none" stroke="#000000" cx="230.8483" cy="-339.8858" rx="18.6979" ry="18.6979"/>
<text text-anchor="middle" x="230.8483" y="-336.1858" font-family="Times,serif" font-size="14.00" fill="#000000">sx</text>
</g>
<!-- GW&#45;&#45;sx -->
<g id="edge1" class="edge">
<title>GW&#45;&#45;sx</title>
<path fill="none" stroke="#000000" d="M136.0464,-413.6705C154.4372,-401.6046 181.0029,-383.4909 202.8483,-365.8835 207.7031,-361.9706 212.7678,-357.426 217.2337,-353.2412"/>
</g>
<!-- lg&#45;&#45;nx -->
<g id="edge8" class="edge">
<title>lg&#45;&#45;nx</title>
<path fill="none" stroke="#000000" d="M81.5541,-247.7514C96.5643,-234.4595 120.5526,-213.2174 136.0006,-199.5378"/>
</g>
<!-- SM -->
<g id="node8" class="node">
<title>SM</title>
<ellipse fill="none" stroke="#000000" cx="134.8483" cy="-106.8437" rx="24.0958" ry="24.0958"/>
<text text-anchor="middle" x="134.8483" y="-103.1437" font-family="Times,serif" font-size="14.00" fill="#000000">SM</text>
</g>
<!-- lg&#45;&#45;SM -->
<g id="edge6" class="edge">
<title>lg&#45;&#45;SM</title>
<path fill="none" stroke="#000000" d="M75.146,-243.2183C87.2879,-215.4833 111.639,-159.8595 125.1892,-128.9075"/>
</g>
<!-- end -->
<g id="node10" class="node">
<title>end</title>
<ellipse fill="none" stroke="#000000" cx="65.8483" cy="-23.3979" rx="23.2963" ry="23.2963"/>
<text text-anchor="middle" x="65.8483" y="-19.6979" font-family="Times,serif" font-size="14.00" fill="#000000">end</text>
</g>
<!-- lg&#45;&#45;end -->
<g id="edge7" class="edge">
<title>lg&#45;&#45;end</title>
<path fill="none" stroke="#000000" d="M67.6947,-241.7238C67.3371,-199.4339 66.4489,-94.4087 66.049,-47.1298"/>
</g>
<!-- pt -->
<g id="node4" class="node">
<title>pt</title>
<ellipse fill="none" stroke="#000000" cx="197.8483" cy="-259.8881" rx="18" ry="18"/>
<text text-anchor="middle" x="197.8483" y="-256.1881" font-family="Times,serif" font-size="14.00" fill="#000000">pt</text>
</g>
<!-- start&#45;&#45;pt -->
<g id="edge10" class="edge">
<title>start&#45;&#45;pt</title>
<path fill="none" stroke="#000000" d="M177.0123,-315.4492C181.6993,-302.9511 187.2868,-288.0514 191.4953,-276.8291"/>
</g>
<!-- start&#45;&#45;nx -->
<g id="edge9" class="edge">
<title>start&#45;&#45;nx</title>
<path fill="none" stroke="#000000" d="M164.9645,-313.8473C161.5921,-283.3974 156.0849,-233.6714 153.0419,-206.1964"/>
</g>
<!-- uq -->
<g id="node5" class="node">
<title>uq</title>
<ellipse fill="none" stroke="#000000" cx="244.8483" cy="-186.3899" rx="19.4965" ry="19.4965"/>
<text text-anchor="middle" x="244.8483" y="-182.6899" font-family="Times,serif" font-size="14.00" fill="#000000">uq</text>
</g>
<!-- pt&#45;&#45;uq -->
<g id="edge13" class="edge">
<title>pt&#45;&#45;uq</title>
<path fill="none" stroke="#000000" d="M207.5868,-244.6592C215.3842,-232.4656 226.3027,-215.3913 234.3052,-202.8771"/>
</g>
<!-- pt&#45;&#45;nx -->
<g id="edge11" class="edge">
<title>pt&#45;&#45;nx</title>
<path fill="none" stroke="#000000" d="M188.1099,-244.6592C180.3124,-232.4656 169.3939,-215.3913 161.3915,-202.8771"/>
</g>
<!-- pt&#45;&#45;SM -->
<g id="edge12" class="edge">
<title>pt&#45;&#45;SM</title>
<path fill="none" stroke="#000000" d="M196.4544,-241.7096C194.4545,-222.4372 189.7261,-191.4508 178.8483,-166.8916 171.9919,-151.4115 160.6309,-136.0504 151.1709,-124.7401"/>
</g>
<!-- uq&#45;&#45;SM -->
<g id="edge14" class="edge">
<title>uq&#45;&#45;SM</title>
<path fill="none" stroke="#000000" d="M228.6174,-174.6525C208.8959,-160.3909 175.643,-136.3443 154.4943,-121.0506"/>
</g>
<!-- TG -->
<g id="node11" class="node">
<title>TG</title>
<ellipse fill="none" stroke="#000000" cx="244.8483" cy="-106.8437" rx="22.9987" ry="22.9987"/>
<text text-anchor="middle" x="244.8483" y="-103.1437" font-family="Times,serif" font-size="14.00" fill="#000000">TG</text>
</g>
<!-- uq&#45;&#45;TG -->
<g id="edge15" class="edge">
<title>uq&#45;&#45;TG</title>
<path fill="none" stroke="#000000" d="M244.8483,-166.7268C244.8483,-155.5009 244.8483,-141.3745 244.8483,-129.6617"/>
</g>
<!-- nx&#45;&#45;SM -->
<g id="edge16" class="edge">
<title>nx&#45;&#45;SM</title>
<path fill="none" stroke="#000000" d="M146.9752,-167.1339C144.7555,-156.0987 141.9522,-142.1616 139.6001,-130.4679"/>
</g>
<!-- ve&#45;&#45;SM -->
<g id="edge17" class="edge">
<title>ve&#45;&#45;SM</title>
<path fill="none" stroke="#000000" d="M34.4926,-175.6619C55.2715,-161.413 91.9977,-136.2282 114.7916,-120.5974"/>
</g>
<!-- ve&#45;&#45;end -->
<g id="edge18" class="edge">
<title>ve&#45;&#45;end</title>
<path fill="none" stroke="#000000" d="M24.1485,-168.0094C32.7911,-138.0377 49.8958,-78.72 59.29,-46.1416"/>
</g>
<!-- SM&#45;&#45;end -->
<g id="edge19" class="edge">
<title>SM&#45;&#45;end</title>
<path fill="none" stroke="#000000" d="M119.1912,-87.9086C107.7398,-74.0598 92.2933,-55.3793 80.9693,-41.6847"/>
</g>
</g>
</svg>
